# File produced by Open Asset Import Library (http://www.assimp.sf.net)
# (assimp v3.1.31193554)

mtllib WALL%20DUNGEON.mtl

# vertex positions
v 0.000319 716.748779 716.748779
v -0.000085 -716.748779 716.748779
v -0.000319 -716.748779 -716.748779
v 0.000085 716.748779 -716.748779

# UV coordinates
vt 0.000000 0.000000
vt 1.000000 0.000000
vt 1.000000 1.000000
vt 0.000000 1.000000

# vertex normals
vn 1.000000 -0.000000 -0.000000

# Mesh
g Plane
usemtl DefaultMaterial
f 4/4/1 1/1/1 2/2/1
f 2/2/1 3/3/1 4/4/1
